<?xml version="1.0" encoding="UTF-8"?>
<svg width="346px" height="206px" viewBox="0 0 346 206" version="1.1" xmlns="http://www.w3.org/2000/svg" xmlns:xlink="http://www.w3.org/1999/xlink">
    <!-- Generator: Sketch 3.8.1 (29687) - http://www.bohemiancoding.com/sketch -->
    <title>Untitled</title>
    <desc>Created with Sketch.</desc>
    <defs></defs>
    <g id="Page-1" stroke="none" stroke-width="1" fill="none" fill-rule="evenodd">
        <g id="Dunder_Mifflin,_Inc" fill="#000000">
            <path d="M8.265706,1.214146 C17.399521,1.224334 26.53325,1.211709 35.66691,1.156701 C47.11376,1.156701 55.60027,7.068585 55.60027,13.162675 L55.60027,72.90532 C55.72213,79.61946 47.1098,83.04846 40.29279,83.04846 C36.77719,83.04846 30.51144,83.01562 25.72894,83.01562 L8.265706,83.01562 L8.265706,1.214146 L8.265706,1.214146 Z M35.83924,65.09282 L35.83924,18.217822 C35.83924,15.113608 32.61641,15.00091 28.02674,15.00091 L28.02674,42.57444 L28.02674,69.33558 C32.98672,69.33558 35.83924,68.32672 35.83924,65.09282 L35.83924,65.09282 Z" id="path2463"></path>
            <path d="M65.247,68.032 L65.2475,1.165704 L85.98556,1.165704 L85.98556,66.125 C85.98556,70.06913 85.974,71.04736 89.05839,71.04736 C92.11406,71.04736 92.06016,69.9753 92.06016,66.125 L92.13169,1.165704 L113.01289,1.165704 C113.01289,23.15163 112.98416,46.334574 112.98416,68.032 C112.98416,71.82592 112.31981,85.03519 88.91477,85.03519 C65.39485,85.03519 65.247,71.97071 65.247,68.032 L65.247,68.032 Z" id="path3243"></path>
            <path d="M122.082,1.1 C126.69094,1.1 133.69357,1.099521 139.14936,1.099521 C142.38956,12.206542 147.44032,26.477872 151.957,38.307351 L151.957,1.099521 L169.04541,1.099521 L169.04541,83.15144 L151.17277,83.15144 C147.18459,71.11626 143.12021,59.1052 139.149,46.106323 L139.149,83.15144 L122.082,83.15144 L122.082,1.1 L122.082,1.1 Z" id="path3265"></path>
            <path d="M178.70574,1.214146 C187.83955,1.224334 196.97328,1.211709 206.10694,1.156701 C217.55379,1.156701 226.0403,7.068585 226.0403,13.162675 L226.0403,72.90532 C226.16216,79.61946 217.54983,83.04846 210.73282,83.04846 C207.21722,83.04846 200.95147,83.01562 196.16897,83.01562 L178.70574,83.01562 L178.70574,1.214146 L178.70574,1.214146 Z M206.27927,65.09282 L206.27927,18.217822 C206.27927,15.113608 203.05644,15.00091 198.46677,15.00091 L198.46677,42.57444 L198.46677,69.33558 C203.42675,69.33558 206.27927,68.32672 206.27927,65.09282 L206.27927,65.09282 Z" id="path3267"></path>
            <polygon id="path3269" points="235.96051 0.020029 270.8934 0.020029 270.8934 15.942929 256.92024 15.942929 256.92024 33.00318 269.91853 33.00318 269.91853 46.976338 256.92024 46.976338 256.92024 65.98633 271.86827 65.98633 271.86827 81.90923 235.96051 81.90923"></polygon>
            <path d="M279.31971,83.13685 L279.31971,1.707998 C290.6034,1.707998 299.30955,1.942389 306.01949,1.942389 C319.40888,1.942389 326.11354,5.553525 326.11354,23.669685 C326.11354,38.008733 324.24412,37.602223 315.065,40.2425 C319.52608,40.742188 325.97138,44.810418 325.97138,49.016344 L326.11354,83.13685 L307.00753,83.13685 C307.00753,71.64054 306.77859,59.35295 306.77859,48.041472 C305.45736,46.660212 304.58933,46.091729 300.11697,46.091729 L300.11697,83.13685 L279.31971,83.13685 L279.31971,83.13685 Z M307.02231,31.1437 C307.02231,26.722318 307.06293,16.845585 307.06293,16.845585 C305.98763,15.478758 304.7403,14.920322 302.71663,14.895842 L300.11697,14.895842 L300.11697,34.068314 L302.06671,34.068314 C304.22856,34.108215 305.93019,32.993522 307.02231,31.1437 L307.02231,31.1437 Z" id="path3271"></path>
            <path d="M0.15694,172.941 L0.15694,91.65284 C9.42161,91.65284 18.854536,91.653 28.10326,91.653 C28.90617,99.7835 32.97253,124.52892 33.62753,129.02291 L39.1518,91.653 L66.12324,91.653 L66.12324,172.941 L47.559,172.941 L47.559,118.044 L40.12667,172.941 L27.12838,172.941 C25.54309,163.42039 21.29482,135.10803 18.91996,119.10225 C18.91996,134.27375 19.00446,155.83478 19.00446,172.941 L0.15694,172.941 L0.15694,172.941 Z" id="path3273"></path>
            <polygon id="path3275" points="75.26932 91.23168 95.94946 91.23168 95.94946 173.03315 75.26932 173.03315"></polygon>
            <polygon id="path3277" points="105.02562 91.04318 141.09587 91.04318 141.09587 106.96608 126.14784 106.96608 126.14784 123.21394 139.14613 123.21394 139.14613 138.16197 126.14784 138.16197 126.14784 172.93239 105.02562 172.93239"></polygon>
            <polygon id="path3281" points="146.62014 91.04318 182.69039 91.04318 182.69039 106.96608 167.74236 106.96608 167.74236 123.21394 180.74065 123.21394 180.74065 138.16197 167.74236 138.16197 167.74236 172.93239 146.62014 172.93239"></polygon>
            <polygon id="path3285" points="188.2838 91.09804 209.08106 91.09804 209.08106 157.06435 222.07934 157.06435 222.07934 172.98725 188.2838 172.98725"></polygon>
            <polygon id="path3287" points="227.51175 91.23168 248.19189 91.23168 248.19189 173.03315 227.51175 173.03315"></polygon>
            <path d="M257.84553,90.56789 C262.45447,90.56789 269.4571,90.56741 274.91289,90.56741 C278.15309,101.67443 283.20385,115.94576 287.72053,127.77524 L287.72053,90.56741 L304.80894,90.56741 L304.80894,172.61933 L286.9363,172.61933 C282.94812,160.58415 278.88374,148.57309 274.91253,135.57421 L274.91253,172.61933 L257.84553,172.61933 L257.84553,90.56789 L257.84553,90.56789 Z" id="path3289"></path>
            <rect id="rect3293" x="308.99396" y="91.00471" width="34.998714" height="8.9781742"></rect>
            <polygon id="path3295" points="309.01465 104.00781 343.97702 104.00781 343.97702 111.97829 329.93175 116.09277 343.97702 116.03533 343.97702 125.00391 308.99311 125.00391 308.99311 116.04251 323.98621 112.02137 309.02183 111.99264"></polygon>
            <path d="M329.0147,149.99408 L329.0147,141.03745 L337.97133,141.03745 C337.97133,141.03745 339.02744,141.07806 339.02744,139.04708 C339.02744,137.0161 338.01195,136.99579 338.01195,136.99579 L315.04154,136.99579 C315.04154,136.99579 313.98543,137.05672 313.98543,139.02677 C313.98543,140.99683 315.00092,141.03745 315.00092,141.03745 L322.94206,141.03745 L322.94206,149.98392 L313.98543,149.98392 C313.98543,149.98392 308.05496,149.95346 308.05496,139.39235 C308.05496,128.83124 313.98543,128.01885 313.98543,128.01885 L338.98682,128.01885 C338.98682,128.01885 345.01884,127.85637 345.01884,139.02677 C345.01884,150.19718 339.01221,149.99408 339.01221,149.99408 L329.0147,149.99408 L329.0147,149.99408 Z" id="path3305"></path>
            <path d="M310.94911,157.01112 L325.01366,157.01112 L325.01366,169.99925 C325.01366,174.66649 317.90209,184.01303 310.99989,184.01303 L310.99989,178.06225 C312.28465,178.06225 314.98061,174.22748 314.98061,172.9848 L310.97958,172.9848 L310.94911,157.01112 L310.94911,157.01112 Z" id="path3307"></path>
            <path d="M29.4375,187.875 L29,188.65625 C26.35959,193.39096 22.92133,199.70309 20.09375,204.71875 L19.65625,205.46875 L20.53125,205.4375 L23.4375,205.40625 L23.71875,205.40625 L23.875,205.15625 L26,201.40625 L33.28125,201.40625 L35.34375,205.125 L35.5,205.375 L35.78125,205.375 L38.65625,205.375 L39.53125,205.375 L39.09375,204.625 L29.875,188.625 L29.4375,187.875 L29.4375,187.875 Z M29.59375,194.09375 L31.78125,198.46875 L27.5,198.46875 C28.21493,196.99635 28.91095,195.46089 29.59375,194.09375 L29.59375,194.09375 Z" id="path3326"></path>
            <path d="M261.125,187.875 L260.6875,188.65625 C258.04709,193.39096 254.60884,199.7031 251.78125,204.71875 L251.34375,205.46875 L252.21875,205.4375 L255.125,205.40625 L255.40625,205.40625 L255.5625,205.15625 L257.65625,201.40625 L264.9375,201.40625 L267.03125,205.125 L267.1875,205.375 L267.46875,205.375 L270.34375,205.375 L271.21875,205.375 L270.78125,204.625 L261.5625,188.625 L261.125,187.875 L261.125,187.875 Z M261.28125,194.0625 L263.46875,198.46875 L259.1875,198.46875 C259.90802,196.98466 260.59301,195.43557 261.28125,194.0625 L261.28125,194.0625 Z" id="path3324"></path>
            <polygon id="path3322" points="282.0625 188 282.0625 188.5 282.0625 204.53125 282.0625 205.03125 282.5625 205.03125 285.5 205.125 286.03125 205.125 286.03125 204.625 286.03125 194.71875 296.1875 204.90625 296.34375 205.03125 296.53125 205.03125 299.5625 205.03125 300.0625 205.03125 300.0625 204.53125 300.0625 188.5 300.0625 188 299.5625 188 296.53125 188 296.03125 188 296.03125 188.5 296.03125 198.375 285.875 188.15625 285.75 188 285.53125 188 282.5625 188"></polygon>
            <path d="M150,188.03125 C148.36875,188.03125 146.06024,188.42866 144.09375,189.6875 C142.12726,190.94634 140.53125,193.1398 140.53125,196.53125 C140.53125,199.9032 142.04316,202.21162 143.96875,203.59375 C145.89434,204.97588 148.20172,205.46875 149.9375,205.46875 C153.28363,205.46875 155.25,204.375 155.25,204.375 L155.5,204.21875 L155.5,203.9375 L155.5,201.5625 L155.5,200.65625 L154.71875,201.125 C153.27885,202.01527 152.46435,202.59374 150.46875,202.59375 C149.53855,202.59375 147.6695,202.09992 146.15625,201.0625 C144.643,200.02508 143.46875,198.517 143.46875,196.46875 C143.46875,194.39548 144.38723,193.09958 145.65625,192.25 C146.92527,191.40042 148.55964,191.0625 149.75,191.0625 C152.27146,191.0625 153.05283,191.36635 154.71875,192.40625 L155.5,192.90625 L155.5,192 L155.5,190.03125 L155.5,189.75 L155.25,189.625 C153.84503,188.79297 153.14063,188.03125 150,188.03125 L150,188.03125 Z" id="path3320"></path>
            <path d="M310.46875,188.03125 L311,188.8125 L316.90625,197.53125 C316.90625,197.87432 316.90624,204.35589 316.90625,204.59375 L316.90625,205.09375 L317.40625,205.09375 L320.5625,205.09375 L321.0625,205.09375 L321.0625,204.59375 L321.0625,197.8125 L327,188.8125 L327.5,188.03125 L326.5625,188.03125 L323.5,188.03125 L323.25,188.03125 L323.09375,188.25 L319.03125,193.6875 L314.96875,188.25 L314.8125,188.03125 L314.5625,188.03125 L311.4375,188.03125 L310.46875,188.03125 L310.46875,188.03125 Z" id="path3318"></path>
            <polygon id="path3316" points="74.5 188.4375 74.5 188.9375 74.5 204.96875 74.5 205.46875 75 205.46875 85.09375 205.46875 85.59375 205.46875 85.59375 204.96875 85.59375 203.5 85.59375 203 85.09375 203 77.46875 203 77.46875 197.40625 84.0625 197.40625 84.5625 197.40625 84.5625 196.90625 84.5625 195.0625 84.5625 194.5625 84.0625 194.5625 77.46875 194.5625 77.46875 191 85.09375 191 85.59375 191 85.59375 190.5 85.59375 189.4375 85.59375 188.9375 85.59375 188.4375 85.09375 188.4375 75 188.4375"></polygon>
            <path d="M177.5,188.5 C175.08111,188.5 172.60663,189.27641 170.71875,190.65625 C168.83087,192.03609 167.53125,194.05838 167.53125,196.46875 C167.53125,198.86588 168.81947,201.13596 170.6875,202.78125 C172.55553,204.42654 175.00648,205.46875 177.4375,205.46875 C179.88117,205.46875 182.3806,204.42269 184.28125,202.78125 C186.1819,201.13981 187.5,198.88008 187.5,196.46875 C187.5,194.07269 186.17879,192.07083 184.28125,190.6875 C182.38371,189.30417 179.90651,188.5 177.5,188.5 L177.5,188.5 Z M177.46875,191.0625 C179.06232,191.0625 180.84658,191.66529 182.1875,192.65625 C183.52842,193.64721 184.40625,194.97606 184.40625,196.46875 C184.40625,197.94706 183.49605,199.47592 182.15625,200.625 C180.81645,201.77408 179.08496,202.53125 177.53125,202.53125 C175.98995,202.53125 174.16227,201.80228 172.78125,200.65625 C171.40023,199.51022 170.46875,197.96012 170.46875,196.4375 C170.46875,194.92509 171.36833,193.60436 172.71875,192.625 C174.06917,191.64564 175.8566,191.0625 177.46875,191.0625 L177.46875,191.0625 Z" id="path3314"></path>
            <path d="M0.5,188.59375 L0.5,189.09375 L0.5,203.875 L0.5,204.375 L1,204.375 L2.9375,204.375 L3.4375,204.375 L3.4375,203.875 L3.4375,198.53125 L7,198.53125 C7.01854,198.53172 7.021498,198.53158 7.03125,198.53125 C7.050755,198.5306 7.074297,198.5016 7.09375,198.5 C7.132655,198.4968 7.191622,198.50841 7.25,198.5 C7.366756,198.48319 7.500289,198.45653 7.6875,198.40625 C8.061922,198.30569 8.564228,198.12081 9.0625,197.78125 C10.059045,197.10213 11.031252,195.7593 11.03125,193.46875 C11.03125,191.20457 10.357177,189.94142 9.59375,189.28125 C9.212036,188.95117 8.824466,188.77711 8.53125,188.6875 C8.384642,188.6427 8.246752,188.60698 8.15625,188.59375 C8.110999,188.58713 8.089764,188.59602 8.0625,188.59375 C8.0625,188.59375 8.023516,188.84303 8,189.09375 C7.998595,189.09368 7.968353,189.09375 7.96875,189.09375 L7.96875,188.59375 L7.9375,188.59375 L1,188.59375 L0.5,188.59375 L0.5,188.59375 Z M3.5,191.53125 L5.8125,191.53125 L5.875,191.53125 C5.892623,191.53312 5.918701,191.52943 5.9375,191.53125 C6.012697,191.53852 6.106321,191.57781 6.21875,191.59375 C6.443609,191.62563 6.723737,191.66214 7,191.78125 C7.552526,192.01947 8.062499,192.39532 8.0625,193.46875 C8.0625,194.52648 7.48016,194.96147 6.8125,195.25 C6.47867,195.39426 6.135458,195.48916 5.875,195.53125 C5.744771,195.55229 5.636369,195.5561 5.5625,195.5625 C5.525565,195.5657 5.488086,195.56132 5.46875,195.5625 L5.4375,195.5625 C5.4375,195.5625 5.42125,195.56036 5.40625,195.5625 L3.5,195.5625 L3.5,191.53125 L3.5,191.53125 Z" id="path3312"></path>
            <path d="M50.46875,188.59375 L50.46875,189.09375 L50.46875,203.875 L50.46875,204.375 L50.96875,204.375 L52.90625,204.375 L53.40625,204.375 L53.40625,203.875 L53.40625,198.53125 L56.96875,198.53125 C56.98729,198.53172 56.99025,198.53158 57,198.53125 C57.0195,198.5306 57.04305,198.5016 57.0625,198.5 C57.1014,198.4968 57.16037,198.50841 57.21875,198.5 C57.33551,198.48319 57.50029,198.45653 57.6875,198.40625 C58.06192,198.30569 58.53298,198.12081 59.03125,197.78125 C60.02779,197.10213 61.03125,195.7593 61.03125,193.46875 C61.03125,191.20457 60.32592,189.94142 59.5625,189.28125 C59.18079,188.95117 58.79321,188.77711 58.5,188.6875 C58.35339,188.6427 58.2155,188.60698 58.125,188.59375 C58.07975,188.58713 58.05851,188.59602 58.03125,188.59375 C58.03125,188.59375 58.01564,188.84375 58,189.09375 C57.99833,189.09367 57.96832,189.09375 57.96875,189.09375 L57.96875,188.59375 L57.9375,188.59375 L50.96875,188.59375 L50.46875,188.59375 L50.46875,188.59375 Z M53.46875,191.53125 L55.8125,191.53125 L55.84375,191.53125 C55.86816,191.53414 55.88118,191.52883 55.90625,191.53125 C55.98145,191.53852 56.07507,191.57781 56.1875,191.59375 C56.41236,191.62563 56.72374,191.66214 57,191.78125 C57.55252,192.01947 58.03125,192.39532 58.03125,193.46875 C58.03125,194.52648 57.44891,194.96147 56.78125,195.25 C56.44742,195.39426 56.10421,195.48916 55.84375,195.53125 C55.71352,195.55229 55.60512,195.5561 55.53125,195.5625 C55.49432,195.5657 55.45684,195.56132 55.4375,195.5625 C55.4375,195.5625 55.40291,195.55851 55.375,195.5625 L53.46875,195.5625 L53.46875,191.53125 L53.46875,191.53125 Z" id="path3310"></path>
            <path d="M98.5,188.59375 L98.5,189.09375 L98.5,203.875 L98.5,204.375 L99,204.375 L100.9375,204.375 L101.4375,204.375 L101.4375,203.875 L101.4375,198.53125 L102.75,198.5 L106.75,204.1875 L106.875,204.40625 L107.15625,204.40625 L109.90625,204.375 L110.96875,204.375 L110.3125,203.5625 L105.90625,198.3125 C106.25078,198.20412 106.64272,198.06732 107.0625,197.78125 C108.05904,197.10213 109.03125,195.7593 109.03125,193.46875 C109.03125,191.20457 108.35717,189.94142 107.59375,189.28125 C107.21204,188.95117 106.82446,188.77711 106.53125,188.6875 C106.38464,188.6427 106.24675,188.60698 106.15625,188.59375 C106.111,188.58713 106.08976,188.59602 106.0625,188.59375 C106.0625,188.59375 106.02352,188.84303 106,189.09375 C105.9986,189.09368 105.96835,189.09375 105.96875,189.09375 L105.96875,188.59375 L105.9375,188.59375 L99,188.59375 L98.5,188.59375 L98.5,188.59375 Z M101.5,191.53125 L103.8125,191.53125 L103.875,191.53125 C103.89262,191.53312 103.9187,191.52943 103.9375,191.53125 C104.0127,191.53852 104.10632,191.57781 104.21875,191.59375 C104.44361,191.62563 104.72374,191.66214 105,191.78125 C105.55252,192.01947 106.0625,192.39532 106.0625,193.46875 C106.0625,194.52648 105.48016,194.96147 104.8125,195.25 C104.47867,195.39426 104.13546,195.48916 103.875,195.53125 C103.74477,195.55229 103.63637,195.5561 103.5625,195.5625 C103.52557,195.5657 103.48809,195.56132 103.46875,195.5625 C103.46875,195.5625 103.43418,195.55851 103.40625,195.5625 L101.5,195.5625 L101.5,191.53125 L101.5,191.53125 Z" id="path3308"></path>
            <path d="M231.46875,188.59375 L231.46875,189.09375 L231.46875,203.875 L231.46875,204.375 L231.96875,204.375 L233.9375,204.375 L234.4375,204.375 L234.4375,203.875 L234.4375,198.53125 L237.96875,198.53125 L238,198.53125 C238.00593,198.53118 238.02637,198.53141 238.03125,198.53125 C238.05075,198.5306 238.04305,198.5016 238.0625,198.5 C238.1014,198.4968 238.16037,198.50841 238.21875,198.5 C238.33551,198.48319 238.50029,198.45653 238.6875,198.40625 C239.06192,198.30569 239.56423,198.12081 240.0625,197.78125 C241.05904,197.10213 242.03125,195.7593 242.03125,193.46875 C242.03125,191.20457 241.32592,189.94142 240.5625,189.28125 C240.18079,188.95117 239.79321,188.77711 239.5,188.6875 C239.35339,188.6427 239.24675,188.60698 239.15625,188.59375 C239.111,188.58713 239.05851,188.59602 239.03125,188.59375 C239.03125,188.59375 239.01563,188.84375 239,189.09375 C238.99833,189.09367 238.96832,189.09375 238.96875,189.09375 L238.96875,188.59375 L238.9375,188.59375 L231.96875,188.59375 L231.46875,188.59375 L231.46875,188.59375 Z M234.5,191.53125 L236.8125,191.53125 L236.84375,191.53125 C236.87203,191.5348 236.9093,191.52852 236.9375,191.53125 C237.0127,191.53852 237.10632,191.57781 237.21875,191.59375 C237.44361,191.62563 237.72374,191.66214 238,191.78125 C238.55252,192.01947 239.03125,192.39532 239.03125,193.46875 C239.03125,194.52648 238.44891,194.96147 237.78125,195.25 C237.44742,195.39426 237.10421,195.48916 236.84375,195.53125 C236.71352,195.55229 236.60512,195.5561 236.53125,195.5625 C236.49432,195.5657 236.45684,195.56132 236.4375,195.5625 C236.4375,195.5625 236.40291,195.55851 236.375,195.5625 L234.5,195.5625 L234.5,191.53125 L234.5,191.53125 Z" id="path3306"></path>
            <polygon id="path3304" points="216.3125 189.46875 216.1875 189.6875 210.5 197.59375 204.8125 189.71875 204.65625 189.5 204.40625 189.5 201.53125 189.5 201.03125 189.5 201.03125 190 201.03125 204.53125 201.03125 205.03125 201.53125 205.03125 203.5 205.03125 204.03125 205.0625 204.03125 204.53125 204.03125 194.0625 210.09375 201.90625 210.46875 202.40625 210.875 201.90625 216.9375 194.03125 216.9375 204.625 216.9375 205.125 217.4375 205.125 219.53125 205.125 220.03125 205.125 220.03125 204.625 220.03125 189.96875 220.03125 189.46875 219.53125 189.46875 216.59375 189.46875"></polygon>
        </g>
    </g>
</svg>